<svg width="1212" height="267" viewBox="0 0 1212 267" fill="none" xmlns="http://www.w3.org/2000/svg">
<path d="M287.659 219.565C280.353 219.565 273.644 218.895 267.532 217.553C261.568 216.062 256.797 214.422 253.219 212.633C249.492 210.844 245.839 208.16 242.261 204.582C240.472 202.793 238.832 201.078 237.341 199.438C235.85 197.799 234.21 195.786 232.421 193.4C230.781 190.866 228.62 187.586 225.936 183.561C223.252 179.386 219.749 173.87 215.425 167.012C209.611 158.215 205.735 153.445 203.796 152.699C203.498 152.55 202.678 152.476 201.336 152.476C199.995 152.476 199.324 153.668 199.324 156.054V186.468C199.324 194.369 199.846 200.482 200.889 204.806C201.187 205.998 202.455 207.042 204.691 207.937C206.927 208.831 209.387 209.502 212.071 209.949C214.754 210.396 216.842 210.62 218.333 210.62C218.929 210.62 219.227 212.036 219.227 214.869C219.227 216.36 219.078 217.702 218.78 218.895C209.834 218.447 202.529 218.075 196.864 217.776C191.198 217.478 187.098 217.404 184.564 217.553L151.914 218.895C151.317 218.298 151.019 217.031 151.019 215.093C151.019 212.111 151.317 210.62 151.914 210.62C153.106 210.62 154.821 210.396 157.057 209.949C159.293 209.502 161.381 208.906 163.319 208.16C165.257 207.266 166.375 206.446 166.673 205.7C167.568 202.271 168.015 195.711 168.015 186.021V101.487C168.015 93.1383 167.568 87.3239 166.673 84.0439C166.375 83.1494 165.182 82.2549 163.095 81.3604C161.157 80.3167 159.07 79.4967 156.833 78.9004C154.597 78.1549 152.883 77.7822 151.69 77.7822C151.094 77.7822 150.795 76.4404 150.795 73.7568C150.795 71.3714 151.019 69.9551 151.466 69.5078C158.324 69.806 164.437 70.1042 169.804 70.4023C175.32 70.5514 180.166 70.626 184.34 70.626C191.497 70.4769 197.087 70.4023 201.113 70.4023C205.138 70.4023 208.194 70.4023 210.282 70.4023C212.369 70.4023 214.158 70.4023 215.649 70.4023C221.612 70.4023 227.576 71.1478 233.54 72.6387C239.652 74.1296 245.243 76.4404 250.312 79.5713C255.381 82.5531 259.406 86.4294 262.388 91.2002C265.519 95.8219 267.084 101.413 267.084 107.973C267.084 114.533 265.743 120.645 263.059 126.311C260.375 131.976 256.872 136.747 252.548 140.623C248.374 144.499 244.05 147.183 239.578 148.674C238.385 149.121 238.161 149.941 238.907 151.134C242.187 156.65 244.721 160.825 246.51 163.657C248.299 166.49 249.79 168.801 250.983 170.59C252.325 172.23 253.89 174.317 255.679 176.852C257.468 179.237 260.003 182.89 263.283 187.81C265.817 191.388 268.799 194.966 272.228 198.544C275.806 201.973 279.608 204.88 283.633 207.266C287.808 209.502 291.759 210.62 295.486 210.62C296.082 211.216 296.38 212.558 296.38 214.646C296.38 216.435 296.082 217.925 295.486 219.118C294.442 219.267 293.25 219.342 291.908 219.342C290.715 219.491 289.299 219.565 287.659 219.565ZM208.716 140.176H214.754C220.569 140.176 225.042 137.641 228.172 132.572C231.452 127.503 233.092 120.794 233.092 112.445C233.092 92.6165 226.16 82.7021 212.294 82.7021C207.076 82.7021 203.647 83.2985 202.007 84.4912C200.218 85.833 199.324 93.1383 199.324 106.407V130.56C199.324 134.734 200.144 137.418 201.784 138.61C203.573 139.654 205.884 140.176 208.716 140.176ZM351.17 219.565C342.076 219.565 333.653 217.255 325.9 212.633C318.296 208.011 312.184 201.824 307.562 194.071C303.089 186.319 300.853 177.821 300.853 168.577C300.853 159.035 302.866 150.463 306.891 142.859C311.066 135.256 316.806 129.218 324.111 124.745C331.416 120.272 339.84 118.036 349.381 118.036C358.774 118.036 366.75 120.272 373.31 124.745C380.019 129.069 385.088 134.51 388.517 141.07C392.095 147.481 393.884 153.966 393.884 160.526C393.884 163.955 393.139 166.192 391.648 167.235C390.306 168.279 387.548 168.801 383.374 168.801H332.833C331.938 168.801 331.491 169.323 331.491 170.366C331.491 175.733 332.46 180.802 334.398 185.573C336.485 190.344 339.467 194.22 343.343 197.202C347.369 200.184 352.214 201.675 357.879 201.675C362.948 201.675 367.645 200.929 371.968 199.438C374.95 198.544 377.261 197.724 378.901 196.979C380.541 196.233 382.032 195.413 383.374 194.519C384.864 193.475 386.579 192.208 388.517 190.717C389.859 191.313 390.53 192.729 390.53 194.966C390.53 196.904 390.232 198.395 389.635 199.438C388.741 201.824 386.355 204.582 382.479 207.713C378.752 210.844 374.13 213.602 368.614 215.987C363.247 218.373 357.432 219.565 351.17 219.565ZM333.056 156.501H361.458C363.545 156.501 364.588 155.085 364.588 152.252C364.588 146.587 363.023 141.518 359.892 137.045C356.91 132.572 353.034 130.336 348.263 130.336C343.94 130.336 340.511 131.901 337.976 135.032C335.591 138.014 333.876 141.368 332.833 145.096C331.938 148.823 331.491 151.879 331.491 154.265C331.491 155.756 332.013 156.501 333.056 156.501ZM406.855 266.752C406.259 266.156 405.96 264.665 405.96 262.279C405.96 259.745 406.259 258.478 406.855 258.478C408.048 258.478 409.762 258.105 411.999 257.359C414.235 256.763 416.322 256.018 418.26 255.123C420.198 254.229 421.242 253.483 421.391 252.887C422.435 248.712 422.957 243.047 422.957 235.891V157.396C422.957 149.047 421.615 143.456 418.931 140.623C417.738 139.132 416.098 138.089 414.011 137.492C412.073 136.896 410.359 136.523 408.868 136.374C407.377 136.076 406.631 135.778 406.631 135.479C406.631 130.261 407.004 127.652 407.75 127.652C412.371 127.652 417.664 127.131 423.627 126.087C429.591 124.894 436.3 123.254 443.754 121.167C448.227 119.676 450.687 118.931 451.134 118.931C452.029 118.931 452.476 119.9 452.476 121.838C452.476 122.285 452.402 122.882 452.252 123.627C452.252 124.223 452.178 124.969 452.029 125.863C458.44 120.794 465.298 118.26 472.603 118.26C482.145 118.26 490.568 120.571 497.874 125.192C505.328 129.665 511.142 135.629 515.317 143.083C519.64 150.537 521.802 158.588 521.802 167.235C521.802 178.268 519.342 187.735 514.422 195.637C509.652 203.389 503.017 209.353 494.519 213.527C486.17 217.702 476.628 219.789 465.894 219.789C462.316 219.789 459.334 219.416 456.949 218.671C454.563 218.075 453.222 217.776 452.923 217.776C452.327 217.776 452.029 218.969 452.029 221.354V232.536C452.029 242.376 452.551 249.16 453.594 252.887C453.892 253.483 455.011 254.229 456.949 255.123C458.887 256.018 460.9 256.763 462.987 257.359C465.223 258.105 466.789 258.478 467.683 258.478C467.981 258.478 468.205 259.074 468.354 260.267C468.503 261.459 468.578 262.727 468.578 264.068C468.578 265.41 468.429 266.305 468.13 266.752C467.236 266.752 465.521 266.603 462.987 266.305C460.452 266.156 457.471 265.932 454.042 265.634C450.762 265.485 447.631 265.336 444.649 265.187C441.667 265.037 439.282 264.963 437.493 264.963C435.704 264.963 433.244 265.037 430.113 265.187C427.131 265.336 424 265.485 420.72 265.634C417.44 265.932 414.533 266.156 411.999 266.305C409.464 266.603 407.75 266.752 406.855 266.752ZM469.472 207.713C482.89 207.713 489.599 196.68 489.599 174.615C489.599 145.692 482.816 131.23 469.249 131.23C464.03 131.23 459.856 132.796 456.725 135.927C453.594 139.058 452.029 143.008 452.029 147.779V190.046C452.029 195.711 453.892 200.109 457.62 203.24C461.347 206.222 465.298 207.713 469.472 207.713ZM585.761 219.565C576.07 219.565 567.2 217.329 559.149 212.856C551.247 208.235 544.911 202.122 540.14 194.519C535.518 186.766 533.208 178.193 533.208 168.801C533.208 159.259 535.518 150.687 540.14 143.083C544.911 135.479 551.247 129.441 559.149 124.969C567.2 120.347 576.07 118.036 585.761 118.036C595.601 118.036 604.472 120.347 612.374 124.969C620.275 129.441 626.537 135.479 631.159 143.083C635.93 150.687 638.315 159.259 638.315 168.801C638.315 178.193 636.004 186.766 631.382 194.519C626.761 202.122 620.424 208.235 612.374 212.856C604.472 217.329 595.601 219.565 585.761 219.565ZM587.998 207.266C592.172 207.266 595.601 205.849 598.285 203.017C600.968 200.184 602.906 196.457 604.099 191.835C605.441 187.064 606.112 181.995 606.112 176.628C606.112 145.767 598.285 130.336 582.63 130.336C578.456 130.336 575.027 131.827 572.343 134.809C569.809 137.79 567.945 141.667 566.752 146.438C565.56 151.208 564.963 156.352 564.963 161.868C564.963 192.133 572.641 207.266 587.998 207.266Z" fill="white"/>
<path d="M651.062 218.895C650.466 218.298 650.167 217.031 650.167 215.093C650.167 212.111 650.317 210.62 650.615 210.62C651.807 210.62 653.522 210.396 655.758 209.949C658.144 209.353 660.306 208.607 662.244 207.713C664.182 206.818 665.3 205.998 665.598 205.253C666.642 201.526 667.164 195.488 667.164 187.139V101.711C667.164 92.3184 666.642 86.5039 665.598 84.2676C665.151 83.0749 663.958 82.0312 662.02 81.1367C660.231 80.2422 658.293 79.5713 656.206 79.124C654.267 78.5277 652.702 78.2295 651.509 78.2295C650.913 78.2295 650.615 76.7386 650.615 73.7568C650.615 71.5205 650.764 70.2533 651.062 69.9551L682.147 71.2969C684.085 71.446 687.738 71.3714 693.105 71.0732C698.621 70.7751 705.852 70.4023 714.797 69.9551C715.245 70.5514 715.468 72.1169 715.468 74.6514C715.468 77.0368 715.17 78.2295 714.574 78.2295C713.679 78.2295 712.114 78.5277 709.877 79.124C707.79 79.7204 705.703 80.4658 703.616 81.3604C701.678 82.1058 700.559 82.8512 700.261 83.5967C699.069 86.8766 698.472 93.2129 698.472 102.605V134.361L698.919 135.032L725.755 135.479C727.843 135.479 731.048 135.479 735.372 135.479C739.695 135.33 745.211 135.181 751.92 135.032C752.219 134.734 752.368 134.436 752.368 134.138V101.711C752.368 93.6602 751.846 87.7712 750.802 84.0439C750.504 83.1494 749.386 82.2549 747.448 81.3604C745.659 80.4658 743.721 79.7204 741.633 79.124C739.546 78.5277 737.906 78.2295 736.713 78.2295C736.415 78.2295 736.117 77.6331 735.819 76.4404C735.67 75.2477 735.67 73.9805 735.819 72.6387C735.968 71.1478 736.192 70.2533 736.49 69.9551L769.811 71.2969C772.047 71.2969 782.111 70.8496 800.001 69.9551C800.449 71.2969 800.672 72.6387 800.672 73.9805C800.672 76.8132 800.3 78.2295 799.554 78.2295C798.66 78.2295 797.094 78.5277 794.858 79.124C792.771 79.7204 790.758 80.4658 788.82 81.3604C786.882 82.1058 785.764 82.8512 785.465 83.5967C784.869 85.833 784.422 88.5166 784.124 91.6475C783.825 94.7783 783.676 98.431 783.676 102.605V186.244C783.676 190.27 783.825 193.848 784.124 196.979C784.422 200.109 784.869 202.868 785.465 205.253C785.764 205.849 786.807 206.595 788.596 207.489C790.534 208.235 792.547 208.906 794.634 209.502C796.871 210.098 798.436 210.396 799.331 210.396C799.927 210.396 800.225 211.962 800.225 215.093C800.225 216.285 800.001 217.553 799.554 218.895C798.958 218.895 797.542 218.82 795.305 218.671C793.069 218.522 790.087 218.298 786.36 218C782.633 217.702 779.353 217.478 776.52 217.329C773.687 217.18 771.302 217.105 769.364 217.105C767.426 217.105 764.742 217.18 761.313 217.329C758.033 217.478 754.604 217.702 751.026 218C747.597 218.149 744.466 218.298 741.633 218.447C738.801 218.745 736.937 218.895 736.042 218.895C735.744 218.447 735.521 217.553 735.372 216.211C735.222 214.869 735.222 213.602 735.372 212.409C735.67 211.216 735.968 210.62 736.266 210.62C737.459 210.62 739.173 210.322 741.41 209.726C743.646 209.129 745.733 208.384 747.671 207.489C749.61 206.446 750.728 205.551 751.026 204.806C751.92 201.377 752.368 195.488 752.368 187.139V149.792L751.92 148.897L725.755 148.45C707.268 148.599 698.025 148.823 698.025 149.121L698.472 149.568V186.244C698.472 190.12 698.621 193.624 698.919 196.755C699.218 199.886 699.665 202.644 700.261 205.029C700.559 205.626 701.603 206.371 703.392 207.266C705.33 208.16 707.343 208.98 709.43 209.726C711.667 210.322 713.232 210.62 714.126 210.62C714.723 210.62 715.021 211.738 715.021 213.975C715.17 216.211 715.021 217.851 714.574 218.895C707.268 218.447 701.081 218.075 696.012 217.776C691.092 217.329 686.62 217.105 682.594 217.105C677.674 217.105 672.68 217.329 667.611 217.776C662.691 218.075 657.175 218.447 651.062 218.895ZM893.256 219.118C892.362 219.118 891.915 217.776 891.915 215.093V206.818C891.915 205.626 891.616 205.327 891.02 205.924C887.889 209.204 883.267 212.186 877.155 214.869C871.191 217.553 864.706 218.895 857.699 218.895C851.884 218.895 846.741 217.105 842.268 213.527C837.944 209.949 834.59 205.178 832.205 199.215C829.819 193.102 828.626 186.393 828.626 179.088V157.396C828.626 149.047 827.285 143.456 824.601 140.623C823.408 139.132 821.768 138.089 819.681 137.492C817.743 136.896 816.028 136.523 814.538 136.374C813.047 136.076 812.301 135.778 812.301 135.479C812.301 130.261 812.674 127.652 813.419 127.652C814.761 127.652 817.221 127.354 820.799 126.758C824.527 126.161 828.552 125.491 832.875 124.745C837.199 123.851 841.299 122.956 845.175 122.062C849.201 121.018 852.257 120.198 854.344 119.602C854.792 119.452 855.164 119.303 855.462 119.154C855.91 119.005 856.357 118.931 856.804 118.931C857.55 118.931 858.295 119.452 859.041 120.496C859.786 121.391 860.159 122.136 860.159 122.732C859.413 129.292 858.817 134.436 858.37 138.163C857.922 141.89 857.699 144.201 857.699 145.096V169.024C857.699 180.653 859.19 188.853 862.171 193.624C865.153 198.246 870.148 200.557 877.155 200.557C882.224 200.557 886.026 199.438 888.56 197.202C891.095 194.817 892.362 192.208 892.362 189.375V157.396C892.362 149.047 891.02 143.456 888.336 140.623C887.144 139.132 885.504 138.089 883.417 137.492C881.478 136.896 879.764 136.523 878.273 136.374C876.782 136.076 876.037 135.778 876.037 135.479C876.037 130.261 876.409 127.652 877.155 127.652C878.497 127.652 880.957 127.354 884.535 126.758C888.262 126.161 892.287 125.491 896.611 124.745C900.934 123.851 905.034 122.956 908.911 122.062C912.936 121.018 915.992 120.198 918.08 119.602L920.54 118.931C921.285 118.931 922.03 119.452 922.776 120.496C923.521 121.391 923.894 122.136 923.894 122.732C923.149 129.292 922.552 134.436 922.105 138.163C921.658 141.89 921.434 144.127 921.434 144.872V188.704C921.434 196.606 922.18 201.302 923.67 202.793C924.416 203.538 925.609 204.135 927.249 204.582C928.889 204.88 930.528 205.029 932.168 205.029H934.405C935.001 205.178 935.299 205.775 935.299 206.818C935.299 211.142 934.852 213.304 933.958 213.304C924.714 214.198 916.961 215.093 910.7 215.987C904.587 216.882 899.816 217.702 896.387 218.447L893.256 219.118ZM967.95 220.013C967.652 220.013 966.906 219.64 965.713 218.895C964.521 218.298 963.403 217.553 962.359 216.658C961.315 215.764 960.793 215.093 960.793 214.646C960.793 213.751 961.092 211.067 961.688 206.595C962.284 202.122 962.583 196.382 962.583 189.375V99.251C962.583 92.9893 962.135 87.6221 961.241 83.1494C960.644 80.764 956.768 79.5713 949.612 79.5713H947.599C946.705 79.5713 946.257 78.0804 946.257 75.0986C946.257 72.5641 946.705 71.2969 947.599 71.2969C956.246 70.5514 964.372 69.2842 971.975 67.4951C979.728 65.7061 985.244 64.2897 988.524 63.2461L990.76 62.5752H991.208C991.804 62.5752 992.4 63.0225 992.997 63.917C993.593 64.8115 993.966 65.6315 994.115 66.377C992.475 73.3841 991.655 80.9131 991.655 88.9639V121.614C991.655 123.105 991.729 124.074 991.878 124.521C992.028 124.82 992.4 124.82 992.997 124.521C998.513 120.198 1005 118.036 1012.45 118.036C1021.4 118.036 1029.6 120.272 1037.05 124.745C1044.51 129.069 1050.47 134.958 1054.94 142.412C1059.42 149.867 1061.65 158.215 1061.65 167.459C1061.65 177.299 1059.27 186.17 1054.5 194.071C1049.87 201.973 1043.61 208.235 1035.71 212.856C1027.81 217.478 1018.94 219.789 1009.1 219.789C1003.73 219.789 999.482 219.416 996.351 218.671C993.369 218.075 990.76 217.478 988.524 216.882C986.288 216.136 983.529 215.764 980.25 215.764C978.013 215.764 975.702 216.509 973.317 218C970.931 219.342 969.142 220.013 967.95 220.013ZM1009.77 207.713C1016.48 207.713 1021.4 204.731 1024.53 198.768C1027.81 192.655 1029.45 184.679 1029.45 174.839C1029.45 146.065 1022.96 131.678 1009.99 131.678C1004.18 131.678 999.631 133.318 996.351 136.598C993.22 139.878 991.655 143.307 991.655 146.885V189.151C991.655 195.115 993.369 199.737 996.798 203.017C1000.23 206.147 1004.55 207.713 1009.77 207.713Z" fill="#4285F4"/>
</svg>
